STARTFONT 2.1
COMMENT CVS:Version $Id 1.5
COMMENT
COMMENT (C) CENA/J.L. Vinot, 2002, CENA (Centre d'Etudes de la Navigation Aťrienne)
COMMENT This software is free software; you can redistribute it and/or modify it 
COMMENT under the terms of the GNU Lesser General Public License as published by the Free Software Foundation: 
COMMENT either version 2 of the License, or (at your option) any later version.
COMMENT 
COMMENT This software is distributed in the hope that it will be useful, but WITHOUT ANY WARRANTY; 
COMMENT without even the implied warranty of MERCHANTABILITY or FITNESS FOR A PARTICULAR PURPOSE.  
COMMENT See the GNU Lesser General Public License for more details.
COMMENT 
COMMENT You should have received a copy of the GNU Lesser General Public License along with this software; 
COMMENT if not, write to the Free Software Foundation, Inc., 59 Temple Place - Suite 330, Boston, MA  02111-1307, USA.
COMMENT Please refer to http://www.gnu.org/copyleft/gpl.html
COMMENT 
COMMENT This font has been originally designed by CENA/France for the specific needs of Air Traffic Control. 
COMMENT For example, it must offer good legibility and avoid any confusion between character shapes. 
COMMENT CENA would like to preserve its qualities. If you have any specific need, you can modify this font, 
COMMENT but we would like you to change its name to avoid any confusion between your new font and the original one designed by CENA.
COMMENT Note however, that as implied in the LGPL licence, you must credit CENA for the original work. 
COMMENT Finally, CENA would appreciate it if you send back any enhancement or extension made to the original work. 
COMMENT This statement must be fully included with any further distribution of the font.
COMMENT 
COMMENT to contact us: email to:  pii-contact@cena.fr
COMMENT write to: CENA, 7 avenue Edouard Belin, 31400 Toulouse, France 
FONT -CenaPii-Bleriot Radar-Medium-R-Condensed--20-200-75-75-P-103-ISO8859-15
SIZE 20 72 72

STARTCHAR gcid14
ENCODING 20
SWIDTH 600 0
DWIDTH 12 0
BBX 10 2 1 6
BITMAP
FFC0
FFC0
ENDCHAR
STARTCHAR gcid15
ENCODING 21
SWIDTH 650 0
DWIDTH 13 0
BBX 11 11 1 2
BITMAP
C000
E000
7000
3820
1C60
0EE0
07E0
03E0
07E0
0FE0
1FE0
ENDCHAR
STARTCHAR gcid16
ENCODING 22
SWIDTH 650 0
DWIDTH 13 0
BBX 11 11 1 0
BITMAP
1FE0
0FE0
07E0
03E0
07E0
0EE0
1C60
3820
7000
E000
C000
ENDCHAR
STARTCHAR space
ENCODING 32
SWIDTH 600 0
DWIDTH 12 0
BBX 0 0 0 0
BITMAP
ENDCHAR
STARTCHAR exclam
ENCODING 33
SWIDTH 300 0
DWIDTH 6 0
BBX 2 14 2 0
BITMAP
C0
C0
C0
C0
C0
C0
C0
C0
C0
C0
00
00
C0
C0
ENDCHAR
STARTCHAR quotedbl
ENCODING 34
SWIDTH 400 0
DWIDTH 8 0
BBX 5 4 2 10
BITMAP
D8
D8
D8
D8
ENDCHAR
STARTCHAR numbersign
ENCODING 35
SWIDTH 600 0
DWIDTH 12 0
BBX 12 11 1 1
BITMAP
0CC0
0CC0
3FF0
7FE0
1980
1980
1980
7FE0
FFC0
3300
3300
ENDCHAR
STARTCHAR dollar
ENCODING 36
SWIDTH 550 0
DWIDTH 11 0
BBX 8 18 2 -2
BITMAP
18
18
3C
7E
DA
D8
D8
F8
78
3C
1E
1F
9B
DB
FE
7C
18
18
ENDCHAR
STARTCHAR percent
ENCODING 37
SWIDTH 700 0
DWIDTH 14 0
BBX 12 14 1 0
BITMAP
70C0
D8C0
D980
D980
DB00
7300
0600
0600
0CE0
0DB0
19B0
19B0
31B0
30E0
ENDCHAR
STARTCHAR ampersand
ENCODING 38
SWIDTH 650 0
DWIDTH 13 0
BBX 11 14 2 0
BITMAP
1C00
3E00
6600
6600
7600
7C00
3800
7C00
EE00
CE60
C7C0
E380
7FC0
3CE0
ENDCHAR
STARTCHAR quotesingle
ENCODING 39
SWIDTH 250 0
DWIDTH 5 0
BBX 2 4 2 10
BITMAP
C0
C0
C0
C0
ENDCHAR
STARTCHAR parenleft
ENCODING 40
SWIDTH 450 0
DWIDTH 9 0
BBX 5 18 3 -3
BITMAP
18
30
60
60
40
C0
C0
C0
C0
C0
C0
C0
C0
40
60
60
30
18
ENDCHAR
STARTCHAR parenright
ENCODING 41
SWIDTH 450 0
DWIDTH 9 0
BBX 5 18 1 -3
BITMAP
C0
60
30
30
10
18
18
18
18
18
18
18
18
10
30
30
60
C0
ENDCHAR
STARTCHAR asterisk
ENCODING 42
SWIDTH 500 0
DWIDTH 10 0
BBX 8 7 1 7
BITMAP
18
DB
7E
3C
7E
DB
18
ENDCHAR
STARTCHAR plus
ENCODING 43
SWIDTH 550 0
DWIDTH 11 0
BBX 8 10 1 0
BITMAP
18
18
18
18
FF
FF
18
18
18
18
ENDCHAR
STARTCHAR comma
ENCODING 44
SWIDTH 400 0
DWIDTH 8 0
BBX 4 6 1 -3
BITMAP
60
70
60
60
C0
80
ENDCHAR
STARTCHAR hyphen
ENCODING 45
SWIDTH 550 0
DWIDTH 11 0
BBX 7 2 2 4
BITMAP
FE
FE
ENDCHAR
STARTCHAR period
ENCODING 46
SWIDTH 400 0
DWIDTH 8 0
BBX 4 3 2 0
BITMAP
60
F0
60
ENDCHAR
STARTCHAR slash
ENCODING 47
SWIDTH 500 0
DWIDTH 10 0
BBX 10 17 0 -2
BITMAP
00C0
0180
0180
0300
0300
0600
0600
0C00
0C00
1800
1800
3000
3000
6000
6000
C000
C000
ENDCHAR
STARTCHAR zero
ENCODING 48
SWIDTH 600 0
DWIDTH 12 0
BBX 10 14 2 0
BITMAP
1E00
7F80
6180
E1C0
C0C0
C6C0
CCC0
CCC0
D8C0
C0C0
E1C0
6180
7F80
1E00
ENDCHAR
STARTCHAR one
ENCODING 49
SWIDTH 500 0
DWIDTH 10 0
BBX 6 14 2 0
BITMAP
0C
1C
3C
7C
EC
CC
0C
0C
0C
0C
0C
0C
0C
0C
ENDCHAR
STARTCHAR two
ENCODING 50
SWIDTH 550 0
DWIDTH 11 0
BBX 10 14 1 0
BITMAP
1E00
3F00
7380
6180
0180
0380
0300
0700
0E00
1C00
3800
7000
7FC0
FFC0
ENDCHAR
STARTCHAR three
ENCODING 51
SWIDTH 550 0
DWIDTH 11 0
BBX 10 14 1 0
BITMAP
3FC0
7F80
0300
0600
0E00
1F00
1F80
01C0
00C0
00C0
40C0
F1C0
7F80
1F00
ENDCHAR
STARTCHAR four
ENCODING 52
SWIDTH 600 0
DWIDTH 12 0
BBX 11 14 1 0
BITMAP
0600
0600
0C00
0C00
1880
1980
3180
3180
6180
7FE0
FFE0
0180
0180
0180
ENDCHAR
STARTCHAR five
ENCODING 53
SWIDTH 550 0
DWIDTH 11 0
BBX 10 14 1 0
BITMAP
0FC0
1FC0
1800
1800
3000
3F00
3F80
01C0
00C0
00C0
40C0
E1C0
7F80
1F00
ENDCHAR
STARTCHAR six
ENCODING 54
SWIDTH 550 0
DWIDTH 11 0
BBX 9 14 2 0
BITMAP
0600
0E00
1C00
3800
3000
7E00
7F00
E380
C180
C180
C180
E380
7F00
3E00
ENDCHAR
STARTCHAR seven
ENCODING 55
SWIDTH 550 0
DWIDTH 11 0
BBX 10 14 1 0
BITMAP
7FC0
FFC0
0180
0300
0300
0600
0600
0C00
0C00
0C00
1800
1800
1800
1800
ENDCHAR
STARTCHAR eight
ENCODING 56
SWIDTH 550 0
DWIDTH 11 0
BBX 9 14 2 0
BITMAP
3E00
7700
6300
6300
7300
3E00
3E00
6700
C380
C180
C180
E380
7F00
3E00
ENDCHAR
STARTCHAR nine
ENCODING 57
SWIDTH 550 0
DWIDTH 11 0
BBX 9 14 2 0
BITMAP
3E00
7F00
E380
C180
C180
C180
E380
7F00
3F00
0600
0E00
1C00
3800
3000
ENDCHAR
STARTCHAR colon
ENCODING 58
SWIDTH 400 0
DWIDTH 8 0
BBX 4 10 2 0
BITMAP
60
F0
60
00
00
00
00
60
F0
60
ENDCHAR
STARTCHAR semicolon
ENCODING 59
SWIDTH 400 0
DWIDTH 8 0
BBX 4 13 2 -3
BITMAP
60
F0
60
00
00
00
00
60
70
60
60
C0
80
ENDCHAR
STARTCHAR less
ENCODING 60
SWIDTH 450 0
DWIDTH 9 0
BBX 7 10 1 0
BITMAP
0E
1C
38
70
E0
E0
70
38
1C
0E
ENDCHAR
STARTCHAR equal
ENCODING 61
SWIDTH 500 0
DWIDTH 10 0
BBX 8 7 1 2
BITMAP
FF
FF
00
00
00
FF
FF
ENDCHAR
STARTCHAR greater
ENCODING 62
SWIDTH 450 0
DWIDTH 9 0
BBX 7 10 1 0
BITMAP
E0
70
38
1C
0E
0E
1C
38
70
E0
ENDCHAR
STARTCHAR question
ENCODING 63
SWIDTH 550 0
DWIDTH 11 0
BBX 9 14 1 0
BITMAP
1E00
7F00
E180
C180
0180
0300
0700
0E00
1C00
1C00
0000
0800
1C00
0800
ENDCHAR
STARTCHAR at
ENCODING 64
SWIDTH 900 0
DWIDTH 18 0
BBX 17 18 1 -3
BITMAP
03F000
0FFC00
1C0E00
300300
600300
61F180
C3F180
C63180
C63180
C63180
CE3180
C67180
677B00
63DE00
300000
1C0400
0FB800
014000
ENDCHAR
STARTCHAR A
ENCODING 65
SWIDTH 600 0
DWIDTH 12 0
BBX 11 14 1 0
BITMAP
0600
0E00
0F00
1B00
1B00
1980
3180
3180
30C0
7FC0
7FC0
6060
C060
C060
ENDCHAR
STARTCHAR B
ENCODING 66
SWIDTH 550 0
DWIDTH 11 0
BBX 9 14 2 0
BITMAP
FC00
FE00
C700
C300
C700
FE00
FE00
C700
C380
C180
C180
C380
FF00
FE00
ENDCHAR
STARTCHAR C
ENCODING 67
SWIDTH 600 0
DWIDTH 12 0
BBX 10 14 2 0
BITMAP
0F80
3FC0
78C0
6000
E000
C000
C000
C000
C000
E000
6000
78C0
3FC0
0F80
ENDCHAR
STARTCHAR D
ENCODING 68
SWIDTH 650 0
DWIDTH 13 0
BBX 10 14 2 0
BITMAP
FC00
FF00
C780
C180
C1C0
C0C0
C0C0
C0C0
C0C0
C1C0
C180
C780
FF00
FC00
ENDCHAR
STARTCHAR E
ENCODING 69
SWIDTH 500 0
DWIDTH 10 0
BBX 8 14 2 0
BITMAP
FE
FE
C0
C0
C0
C0
FC
FC
C0
C0
C0
C0
FF
FF
ENDCHAR
STARTCHAR F
ENCODING 70
SWIDTH 450 0
DWIDTH 9 0
BBX 7 14 2 0
BITMAP
FE
FE
C0
C0
C0
C0
FC
FC
C0
C0
C0
C0
C0
C0
ENDCHAR
STARTCHAR G
ENCODING 71
SWIDTH 650 0
DWIDTH 13 0
BBX 10 14 2 0
BITMAP
0F80
3FC0
7880
6000
E000
C000
C7C0
C7C0
C0C0
E0C0
60C0
78C0
3FC0
0FC0
ENDCHAR
STARTCHAR H
ENCODING 72
SWIDTH 600 0
DWIDTH 12 0
BBX 9 14 2 0
BITMAP
C180
C180
C180
C180
C180
C180
FF80
FF80
C180
C180
C180
C180
C180
C180
ENDCHAR
STARTCHAR I
ENCODING 73
SWIDTH 350 0
DWIDTH 7 0
BBX 2 14 3 0
BITMAP
C0
C0
C0
C0
C0
C0
C0
C0
C0
C0
C0
C0
C0
C0
ENDCHAR
STARTCHAR J
ENCODING 74
SWIDTH 400 0
DWIDTH 8 0
BBX 6 14 1 0
BITMAP
0C
0C
0C
0C
0C
0C
0C
0C
0C
0C
0C
CC
FC
78
ENDCHAR
STARTCHAR K
ENCODING 75
SWIDTH 550 0
DWIDTH 11 0
BBX 9 14 2 0
BITMAP
C300
C700
CE00
DC00
F800
F000
E000
F000
F800
DC00
CE00
C700
C380
C180
ENDCHAR
STARTCHAR L
ENCODING 76
SWIDTH 450 0
DWIDTH 9 0
BBX 6 14 2 0
BITMAP
C0
C0
C0
C0
C0
C0
C0
C0
C0
C0
C0
C0
FC
FC
ENDCHAR
STARTCHAR M
ENCODING 77
SWIDTH 750 0
DWIDTH 15 0
BBX 12 14 2 0
BITMAP
C030
C030
E070
E070
E070
F0F0
F0F0
D9B0
D9B0
D9B0
CF30
CF30
C630
C630
ENDCHAR
STARTCHAR N
ENCODING 78
SWIDTH 650 0
DWIDTH 13 0
BBX 10 14 2 0
BITMAP
C0C0
E0C0
E0C0
F0C0
F8C0
D8C0
CCC0
CCC0
C6C0
C3C0
C3C0
C1C0
C1C0
C0C0
ENDCHAR
STARTCHAR O
ENCODING 79
SWIDTH 700 0
DWIDTH 14 0
BBX 12 14 2 0
BITMAP
0F00
3FC0
79E0
6060
E070
C030
C030
C030
C030
E070
6060
79E0
3FC0
0F00
ENDCHAR
STARTCHAR P
ENCODING 80
SWIDTH 500 0
DWIDTH 10 0
BBX 8 14 2 0
BITMAP
FC
FE
C7
C3
C3
C3
C7
FE
FC
C0
C0
C0
C0
C0
ENDCHAR
STARTCHAR Q
ENCODING 81
SWIDTH 750 0
DWIDTH 15 0
BBX 13 14 2 0
BITMAP
0F00
3FC0
79E0
6060
E070
C030
C030
CE30
DF30
F3F0
71E0
79E0
3FF0
0F38
ENDCHAR
STARTCHAR R
ENCODING 82
SWIDTH 550 0
DWIDTH 11 0
BBX 9 14 2 0
BITMAP
FC00
FE00
C700
C300
C300
C300
C700
FE00
FC00
DC00
CE00
C700
C380
C180
ENDCHAR
STARTCHAR S
ENCODING 83
SWIDTH 500 0
DWIDTH 10 0
BBX 9 14 1 0
BITMAP
1E00
3F00
7300
6000
6000
7800
3E00
0F00
0380
0180
0180
6380
FF00
3E00
ENDCHAR
STARTCHAR T
ENCODING 84
SWIDTH 550 0
DWIDTH 11 0
BBX 10 14 1 0
BITMAP
7FC0
FF80
0C00
0C00
0C00
0C00
0C00
0C00
0C00
0C00
0C00
0C00
0C00
0C00
ENDCHAR
STARTCHAR U
ENCODING 85
SWIDTH 600 0
DWIDTH 12 0
BBX 9 14 2 0
BITMAP
C180
C180
C180
C180
C180
C180
C180
C180
C180
C180
C180
E380
7F00
3E00
ENDCHAR
STARTCHAR V
ENCODING 86
SWIDTH 600 0
DWIDTH 12 0
BBX 11 14 1 0
BITMAP
C060
6060
60C0
60C0
30C0
3180
3180
1980
1B00
1B00
0F00
0E00
0E00
0400
ENDCHAR
STARTCHAR W
ENCODING 87
SWIDTH 750 0
DWIDTH 15 0
BBX 14 14 1 0
BITMAP
C00C
C00C
C30C
6318
6318
6318
6398
37B0
36B0
34F0
3CF0
1CE0
1860
1860
ENDCHAR
STARTCHAR X
ENCODING 88
SWIDTH 550 0
DWIDTH 11 0
BBX 9 14 2 0
BITMAP
C180
C180
6300
6300
3600
3E00
1C00
1C00
3E00
3600
6300
6300
C180
C180
ENDCHAR
STARTCHAR Y
ENCODING 89
SWIDTH 550 0
DWIDTH 11 0
BBX 10 14 1 0
BITMAP
C0C0
C0C0
6180
6180
3300
3300
1E00
1E00
0C00
0C00
0C00
0C00
0C00
0C00
ENDCHAR
STARTCHAR Z
ENCODING 90
SWIDTH 600 0
DWIDTH 12 0
BBX 10 14 2 0
BITMAP
7F80
FF80
0180
0300
0700
0600
0C00
1C00
1800
3000
7000
6000
FFC0
FFC0
ENDCHAR
STARTCHAR bracketleft
ENCODING 91
SWIDTH 400 0
DWIDTH 8 0
BBX 4 18 3 -3
BITMAP
F0
C0
C0
C0
C0
C0
C0
C0
C0
C0
C0
C0
C0
C0
C0
C0
C0
F0
ENDCHAR
STARTCHAR backslash
ENCODING 92
SWIDTH 500 0
DWIDTH 10 0
BBX 10 17 0 -2
BITMAP
C000
6000
6000
3000
3000
1800
1800
0C00
0C00
0600
0600
0300
0300
0180
0180
00C0
00C0
ENDCHAR
STARTCHAR bracketright
ENCODING 93
SWIDTH 400 0
DWIDTH 8 0
BBX 4 18 1 -3
BITMAP
F0
30
30
30
30
30
30
30
30
30
30
30
30
30
30
30
30
F0
ENDCHAR
STARTCHAR asciicircum
ENCODING 94
SWIDTH 600 0
DWIDTH 12 0
BBX 9 4 2 10
BITMAP
1C00
3600
6300
C180
ENDCHAR
STARTCHAR underscore
ENCODING 95
SWIDTH 600 0
DWIDTH 12 0
BBX 12 1 0 -4
BITMAP
FFF0
ENDCHAR
STARTCHAR a
ENCODING 97
SWIDTH 450 0
DWIDTH 9 0
BBX 7 10 2 0
BITMAP
7C
7E
06
3E
7E
C6
C6
C6
FE
7E
ENDCHAR
STARTCHAR b
ENCODING 98
SWIDTH 500 0
DWIDTH 10 0
BBX 8 14 2 0
BITMAP
C0
C0
C0
C0
DC
FE
E7
C3
C3
C3
C3
E7
FE
DC
ENDCHAR
STARTCHAR c
ENCODING 99
SWIDTH 450 0
DWIDTH 9 0
BBX 7 10 2 0
BITMAP
3C
7E
E4
C0
C0
C0
C0
E4
7E
3C
ENDCHAR
STARTCHAR d
ENCODING 100
SWIDTH 500 0
DWIDTH 10 0
BBX 8 14 2 0
BITMAP
03
03
03
03
3B
7F
E7
C3
C3
C3
C3
E7
7F
3B
ENDCHAR
STARTCHAR e
ENCODING 101
SWIDTH 500 0
DWIDTH 10 0
BBX 8 10 2 0
BITMAP
3C
7E
E7
C3
CF
FC
F0
E1
7F
3E
ENDCHAR
STARTCHAR f
ENCODING 102
SWIDTH 400 0
DWIDTH 8 0
BBX 8 14 1 0
BITMAP
0F
1F
30
30
7E
FE
30
30
30
30
30
30
30
30
ENDCHAR
STARTCHAR g
ENCODING 103
SWIDTH 500 0
DWIDTH 10 0
BBX 8 14 2 -4
BITMAP
3F
7F
E3
C3
C3
C3
C3
E7
7F
3B
03
03
7E
7C
ENDCHAR
STARTCHAR h
ENCODING 104
SWIDTH 500 0
DWIDTH 10 0
BBX 8 14 2 0
BITMAP
C0
C0
C0
C0
DE
FF
E3
C3
C3
C3
C3
C3
C3
C3
ENDCHAR
STARTCHAR i
ENCODING 105
SWIDTH 300 0
DWIDTH 6 0
BBX 2 13 3 0
BITMAP
C0
C0
00
40
C0
C0
C0
C0
C0
C0
C0
C0
C0
ENDCHAR
STARTCHAR j
ENCODING 106
SWIDTH 300 0
DWIDTH 6 0
BBX 5 17 0 -4
BITMAP
18
18
00
08
18
18
18
18
18
18
18
18
18
18
98
F0
E0
ENDCHAR
STARTCHAR k
ENCODING 107
SWIDTH 500 0
DWIDTH 10 0
BBX 8 14 2 0
BITMAP
C0
C0
C0
C0
C6
CC
D8
F0
F0
F8
DC
CE
C7
C3
ENDCHAR
STARTCHAR l
ENCODING 108
SWIDTH 350 0
DWIDTH 7 0
BBX 5 14 2 0
BITMAP
C0
C0
C0
C0
C0
C0
C0
C0
C0
C0
C0
C0
78
38
ENDCHAR
STARTCHAR m
ENCODING 109
SWIDTH 700 0
DWIDTH 14 0
BBX 12 10 2 0
BITMAP
DCE0
FFF0
E730
C630
C630
C630
C630
C630
C630
C630
ENDCHAR
STARTCHAR n
ENCODING 110
SWIDTH 500 0
DWIDTH 10 0
BBX 8 10 2 0
BITMAP
CE
DF
F3
E3
C3
C3
C3
C3
C3
C3
ENDCHAR
STARTCHAR o
ENCODING 111
SWIDTH 500 0
DWIDTH 10 0
BBX 9 10 1 0
BITMAP
1C00
7F00
6300
C180
C180
C180
C180
6300
7F00
1C00
ENDCHAR
STARTCHAR p
ENCODING 112
SWIDTH 500 0
DWIDTH 10 0
BBX 8 14 2 -4
BITMAP
DC
FE
E7
C3
C3
C3
C3
E7
FE
DC
C0
C0
C0
C0
ENDCHAR
STARTCHAR q
ENCODING 113
SWIDTH 500 0
DWIDTH 10 0
BBX 8 14 2 -4
BITMAP
3B
7F
E7
C3
C3
C3
C3
E7
7F
3B
03
03
03
03
ENDCHAR
STARTCHAR r
ENCODING 114
SWIDTH 400 0
DWIDTH 8 0
BBX 6 10 2 0
BITMAP
CC
DC
F4
E0
C0
C0
C0
C0
C0
C0
ENDCHAR
STARTCHAR s
ENCODING 115
SWIDTH 450 0
DWIDTH 9 0
BBX 7 10 1 0
BITMAP
3C
7C
60
70
3C
0E
06
46
FC
78
ENDCHAR
STARTCHAR t
ENCODING 116
SWIDTH 400 0
DWIDTH 8 0
BBX 7 13 1 0
BITMAP
10
30
30
7E
FC
30
30
30
30
30
30
1E
0E
ENDCHAR
STARTCHAR u
ENCODING 117
SWIDTH 500 0
DWIDTH 10 0
BBX 8 10 2 0
BITMAP
C3
C3
C3
C3
C3
C3
C3
E7
7F
3B
ENDCHAR
STARTCHAR v
ENCODING 118
SWIDTH 500 0
DWIDTH 10 0
BBX 9 10 1 0
BITMAP
C380
C300
6300
6300
6600
3600
3600
3C00
1C00
1C00
ENDCHAR
STARTCHAR w
ENCODING 119
SWIDTH 700 0
DWIDTH 14 0
BBX 13 10 1 0
BITMAP
C008
C618
C618
6730
6730
6730
3DE0
3DE0
18C0
18C0
ENDCHAR
STARTCHAR x
ENCODING 120
SWIDTH 450 0
DWIDTH 9 0
BBX 8 10 1 0
BITMAP
C3
E6
66
3C
38
3C
6C
6E
C7
C3
ENDCHAR
STARTCHAR y
ENCODING 121
SWIDTH 500 0
DWIDTH 10 0
BBX 9 14 1 -4
BITMAP
C180
C180
6180
6180
3180
3300
1B00
1F00
0E00
0E00
0C00
1C00
3800
7000
ENDCHAR
STARTCHAR z
ENCODING 122
SWIDTH 500 0
DWIDTH 10 0
BBX 9 10 1 0
BITMAP
7F00
FE00
0600
0C00
1C00
1800
3800
3000
7F80
FF80
ENDCHAR
STARTCHAR braceleft
ENCODING 123
SWIDTH 400 0
DWIDTH 8 0
BBX 6 18 1 -3
BITMAP
1C
30
30
30
30
30
30
30
C0
30
30
30
30
30
30
30
30
1C
ENDCHAR
STARTCHAR bar
ENCODING 124
SWIDTH 400 0
DWIDTH 8 0
BBX 2 18 3 -3
BITMAP
C0
C0
C0
C0
C0
C0
C0
C0
C0
C0
C0
C0
C0
C0
C0
C0
C0
C0
ENDCHAR
STARTCHAR braceright
ENCODING 125
SWIDTH 400 0
DWIDTH 8 0
BBX 6 18 1 -3
BITMAP
E0
30
30
30
30
30
30
30
0C
30
30
30
30
30
30
30
30
E0
ENDCHAR
STARTCHAR Euro
ENCODING 164
SWIDTH 650 0
DWIDTH 13 0
BBX 12 14 0 0
BITMAP
03C0
0FE0
1C30
1810
3000
FFC0
3000
FF80
3000
3000
1810
1C30
0FE0
03C0
ENDCHAR
STARTCHAR degree
ENCODING 176
SWIDTH 400 0
DWIDTH 8 0
BBX 6 5 1 9
BITMAP
78
CC
CC
CC
78
ENDCHAR
STARTCHAR Agrave
ENCODING 192
SWIDTH 600 0
DWIDTH 12 0
BBX 11 18 1 0
BITMAP
1800
0C00
0400
0000
0600
0600
0F00
0F00
1B00
1980
1980
3180
30C0
3FC0
7FC0
6060
6060
C060
ENDCHAR
STARTCHAR Acircumflex
ENCODING 194
SWIDTH 600 0
DWIDTH 12 0
BBX 11 18 1 0
BITMAP
0400
0E00
1B00
0000
0600
0600
0F00
0F00
1B00
1980
1980
3180
30C0
3FC0
7FC0
6060
6060
C060
ENDCHAR
STARTCHAR Ccedilla
ENCODING 199
SWIDTH 600 0
DWIDTH 12 0
BBX 10 18 2 -4
BITMAP
0F80
3FC0
78C0
6000
E000
C000
C000
C000
C000
E000
6000
78C0
3FC0
0F80
0F00
0180
0180
0F00
ENDCHAR
STARTCHAR Egrave
ENCODING 200
SWIDTH 500 0
DWIDTH 10 0
BBX 8 18 2 0
BITMAP
60
30
10
00
FE
FE
C0
C0
C0
C0
FC
FC
C0
C0
C0
C0
FF
FF
ENDCHAR
STARTCHAR Eacute
ENCODING 201
SWIDTH 500 0
DWIDTH 10 0
BBX 8 18 2 0
BITMAP
0C
18
10
00
FE
FE
C0
C0
C0
C0
FC
FC
C0
C0
C0
C0
FF
FF
ENDCHAR
STARTCHAR Ecircumflex
ENCODING 202
SWIDTH 500 0
DWIDTH 10 0
BBX 8 18 2 0
BITMAP
10
38
6C
00
FE
FE
C0
C0
C0
C0
FC
FC
C0
C0
C0
C0
FF
FF
ENDCHAR
STARTCHAR Edieresis
ENCODING 203
SWIDTH 500 0
DWIDTH 10 0
BBX 8 18 2 0
BITMAP
66
66
00
00
FE
FE
C0
C0
C0
C0
FC
FC
C0
C0
C0
C0
FF
FF
ENDCHAR
STARTCHAR Icircumflex
ENCODING 206
SWIDTH 350 0
DWIDTH 7 0
BBX 5 18 2 0
BITMAP
20
70
D8
00
60
60
60
60
60
60
60
60
60
60
60
60
60
60
ENDCHAR
STARTCHAR Idieresis
ENCODING 207
SWIDTH 350 0
DWIDTH 7 0
BBX 6 18 1 0
BITMAP
CC
CC
00
00
30
30
30
30
30
30
30
30
30
30
30
30
30
30
ENDCHAR
STARTCHAR Ocircumflex
ENCODING 212
SWIDTH 700 0
DWIDTH 14 0
BBX 12 18 2 0
BITMAP
0200
0700
0D80
0000
0F00
3FC0
79E0
6060
E070
C030
C030
C030
C030
E070
6060
79E0
3FC0
0F00
ENDCHAR
STARTCHAR Ugrave
ENCODING 217
SWIDTH 600 0
DWIDTH 12 0
BBX 9 18 2 0
BITMAP
3000
1800
0800
0000
C180
C180
C180
C180
C180
C180
C180
C180
C180
C180
C180
E380
7F00
3E00
ENDCHAR
STARTCHAR Ucircumflex
ENCODING 219
SWIDTH 600 0
DWIDTH 12 0
BBX 9 18 2 0
BITMAP
0800
1C00
3600
0000
C180
C180
C180
C180
C180
C180
C180
C180
C180
C180
C180
E380
7F00
3E00
ENDCHAR
STARTCHAR Udieresis
ENCODING 220
SWIDTH 600 0
DWIDTH 12 0
BBX 9 18 2 0
BITMAP
6600
6600
0000
0000
C180
C180
C180
C180
C180
C180
C180
C180
C180
C180
C180
E380
7F00
3E00
ENDCHAR
STARTCHAR agrave
ENCODING 224
SWIDTH 450 0
DWIDTH 9 0
BBX 7 14 2 0
BITMAP
60
30
10
00
7C
7E
06
3E
7E
C6
C6
C6
FE
7E
ENDCHAR
STARTCHAR acircumflex
ENCODING 226
SWIDTH 450 0
DWIDTH 9 0
BBX 7 14 2 0
BITMAP
10
38
6C
00
7C
7E
06
3E
7E
C6
C6
C6
FE
7E
ENDCHAR
STARTCHAR ccedilla
ENCODING 231
SWIDTH 450 0
DWIDTH 9 0
BBX 7 13 2 -3
BITMAP
3C
7E
E4
C0
C0
C0
C0
E4
7E
3C
1C
0C
38
ENDCHAR
STARTCHAR egrave
ENCODING 232
SWIDTH 500 0
DWIDTH 10 0
BBX 8 14 2 0
BITMAP
60
30
10
00
3C
7E
E7
C3
CF
FC
F0
E1
7F
3E
ENDCHAR
STARTCHAR eacute
ENCODING 233
SWIDTH 500 0
DWIDTH 10 0
BBX 8 14 2 0
BITMAP
06
0C
08
00
3C
7E
E7
C3
CF
FC
F0
E1
7F
3E
ENDCHAR
STARTCHAR ecircumflex
ENCODING 234
SWIDTH 500 0
DWIDTH 10 0
BBX 8 14 2 0
BITMAP
10
38
6C
00
3C
7E
E7
C3
CF
FC
F0
E1
7F
3E
ENDCHAR
STARTCHAR edieresis
ENCODING 235
SWIDTH 500 0
DWIDTH 10 0
BBX 8 14 2 0
BITMAP
66
66
00
00
3C
7E
E7
C3
CF
FC
F0
E1
7F
3E
ENDCHAR
STARTCHAR icircumflex
ENCODING 238
SWIDTH 350 0
DWIDTH 7 0
BBX 5 14 2 0
BITMAP
20
70
D8
00
20
60
60
60
60
60
60
60
60
60
ENDCHAR
STARTCHAR idieresis
ENCODING 239
SWIDTH 350 0
DWIDTH 7 0
BBX 6 14 1 0
BITMAP
CC
CC
00
00
10
30
30
30
30
30
30
30
30
30
ENDCHAR
STARTCHAR ocircumflex
ENCODING 244
SWIDTH 500 0
DWIDTH 10 0
BBX 9 14 1 0
BITMAP
0800
1C00
3600
0000
1C00
7F00
6300
C180
C180
C180
C180
6300
7F00
1C00
ENDCHAR
STARTCHAR ugrave
ENCODING 249
SWIDTH 500 0
DWIDTH 10 0
BBX 8 14 2 0
BITMAP
60
30
10
00
C3
C3
C3
C3
C3
C3
C3
E7
7F
3B
ENDCHAR
STARTCHAR ucircumflex
ENCODING 251
SWIDTH 500 0
DWIDTH 10 0
BBX 8 14 2 0
BITMAP
08
1C
36
00
C3
C3
C3
C3
C3
C3
C3
E7
7F
3B
ENDCHAR
STARTCHAR udieresis
ENCODING 252
SWIDTH 500 0
DWIDTH 10 0
BBX 8 14 2 0
BITMAP
66
66
00
00
C3
C3
C3
C3
C3
C3
C3
E7
7F
3B
ENDCHAR
ENDFONT
